<?xml version="1.0" standalone="no"?>
<!DOCTYPE svg PUBLIC "-//W3C//DTD SVG 20010904//EN"
 "http://www.w3.org/TR/2001/REC-SVG-20010904/DTD/svg10.dtd">
<svg version="1.0" xmlns="http://www.w3.org/2000/svg"
 width="32.000000pt" height="32.000000pt" viewBox="0 0 32.000000 32.000000"
 preserveAspectRatio="xMidYMid meet">

<g transform="translate(0.000000,32.000000) scale(0.100000,-0.100000)"
fill="#000000" stroke="none">
<path d="M140 300 c-12 -12 -20 -33 -20 -55 0 -28 -4 -35 -20 -35 -15 0 -20
-7 -20 -25 0 -18 5 -25 20 -25 18 0 20 -7 20 -80 l0 -80 30 0 30 0 0 79 c0 74
2 80 21 83 12 2 26 13 30 26 7 20 5 22 -21 22 -26 0 -30 4 -30 26 0 17 6 28
20 31 13 3 20 14 20 29 0 20 -5 24 -30 24 -17 0 -39 -9 -50 -20z"/>
</g>
</svg>
