<?xml version="1.0" standalone="no"?>
<!DOCTYPE svg PUBLIC "-//W3C//DTD SVG 20010904//EN"
 "http://www.w3.org/TR/2001/REC-SVG-20010904/DTD/svg10.dtd">
<svg version="1.0" xmlns="http://www.w3.org/2000/svg"
 width="32.000000pt" height="32.000000pt" viewBox="0 0 32.000000 32.000000"
 preserveAspectRatio="xMidYMid meet">

<g transform="translate(0.000000,32.000000) scale(0.100000,-0.100000)"
fill="#000000" stroke="none">
<path d="M183 275 c-13 -9 -23 -27 -23 -41 0 -15 -6 -24 -15 -24 -24 0 -79 25
-94 43 -28 34 -48 6 -26 -37 8 -15 10 -24 5 -21 -21 13 -9 -35 12 -49 12 -9
17 -16 10 -16 -21 0 -13 -19 16 -34 l27 -14 -25 -10 c-14 -5 -34 -12 -45 -14
-38 -9 66 -30 112 -23 60 9 127 72 142 135 6 25 16 53 21 62 13 24 13 31 -2
22 -9 -6 -9 -3 0 9 12 14 11 16 -15 16 -15 0 -39 2 -53 6 -16 4 -33 0 -47 -10z"/>
</g>
</svg>
